# xmcd
#
# Track frame offsets: 
#        150
#        15796
#        30736
#        47033
#        63761
#        79276
#        94524
#        109613
#        123359
#        137014
#        150640
#        165016
#
# Disc length: 2398 seconds
#
# Revision: 3
# Processed by: cddbd v1.5.2PL0 Copyright (c) Steve Scherf et al.
# Submitted via: ExactAudioCopyFreeDBPlugin 1.0
#
DISCID=7e095c0c
DTITLE=Various Artist - Συννεφιασμένη Κυριακή 
DYEAR=2001
DGENRE=GREEK
TTITLE0=Στέλιος Καζαντζίδης, Μαρινέλλα, Γιώτα Λύδια - Συννεφιασμένη Κυ
TTITLE0=ριακή
TTITLE1=Πόλυ Πάνου, Βασίλης Τσιτσάνης, Στράτος Διονυσίου - H Αχάριστη
TTITLE2=Στέλιος Καζαντζίδης - Παίξε Χρήστο Το Μπουζούκι
TTITLE3=Πόλυ Πάνου - Μες Την Πολλή Σκοτούρα Μου
TTITLE4=VariΒασίλης Τσιτσάνης, Γρηγόρης Μπιθικώτσηςous Artists - Στα Τ
TTITLE4=ρίκαλα Στα Δυο Στενά
TTITLE5=Βασίλης Τσιτσάνης, Γρηγόρης Μπιθικώτσης - Για Τα Μάτια Π' Αγαπ
TTITLE5=ώ
TTITLE6=Αντώνης Ρεπάνης, Βασίλης Τσιτσάνης - Αρχόντισσα
TTITLE7=Καίτη Γκρέυ, Αντώνης Ρεπάνης, Βασίλης Τσιτσάνης - Στρώσε Μου Ν
TTITLE7=α Κοιμηθώ
TTITLE8=Στέλιος Καζαντζίδης - Ίσως Αύριο
TTITLE9=Γρηγόρης Μπιθικώτσης, Βούλα Γκίκα - Ό,τι Κι Αν Πω δεν Σε Ξεχνώ
TTITLE10=Βασίλης Τσιτσάνης, Γρηγόρης Μπιθικώτσης - Η Δροσούλα
TTITLE11=Γιώτα Λύδια, Μαρινέλλα, Στέλιος Καζαντζίδης - Τα Καβουράκια
EXTD=
EXTT0=
EXTT1=
EXTT2=
EXTT3=
EXTT4=
EXTT5=
EXTT6=
EXTT7=
EXTT8=
EXTT9=
EXTT10=
EXTT11=
PLAYORDER=
